<svg width="636" height="822" viewBox="0 0 636 822" fill="none" xmlns="http://www.w3.org/2000/svg">
<path d="M87.4999 301C85.9999 333.5 75.9999 492.5 75.9999 492.5H200C200 492.5 199 478.5 209.5 458C220 437.5 246.5 435 246.5 435L391.127 435.499C391.127 435.499 410 441 423.5 458C437 475 435 492.5 435 492.5L556.5 494C556.5 494 548 329.5 547 300C546 270.5 508.5 263.5 508.5 263.5L331.812 235.5H301.5L118.5 264.5C118.5 264.5 88.9999 268.5 87.4999 301Z" fill="white"/>
<path d="M391.5 435.5L391.127 435.499M391.127 435.499L246.5 435C246.5 435 220 437.5 209.5 458C199 478.5 200 492.5 200 492.5H75.9999C75.9999 492.5 85.9999 333.5 87.4999 301C88.9999 268.5 118.5 264.5 118.5 264.5L301.5 235.5H331.812L508.5 263.5C508.5 263.5 546 270.5 547 300C548 329.5 556.5 494 556.5 494L435 492.5C435 492.5 437 475 423.5 458C410 441 391.127 435.499 391.127 435.499Z" stroke="white"/>
<path d="M317.5 0.5C373.552 0.5 419 46.3862 419 103C419 159.614 373.552 205.5 317.5 205.5C261.448 205.5 216 159.614 216 103C216 46.3862 261.448 0.5 317.5 0.5Z" fill="white" stroke="white"/>
<path d="M382.042 463.502H382.045C382.047 463.502 382.05 463.503 382.053 463.503L382.19 463.517C382.283 463.527 382.42 463.543 382.595 463.566C382.945 463.614 383.449 463.691 384.073 463.815C385.321 464.061 387.052 464.489 388.989 465.22C392.859 466.679 397.585 469.355 400.912 474.218C404.193 479.013 405.841 483.061 406.668 485.924C407.081 487.355 407.289 488.488 407.394 489.27C407.446 489.66 407.473 489.963 407.486 490.17C407.493 490.274 407.496 490.354 407.498 490.409C407.499 490.437 407.5 490.459 407.5 490.474V521H602.863L602.882 521.001L602.844 521.5L602.883 521.002H602.895C602.902 521.003 602.913 521.004 602.926 521.005C602.953 521.007 602.992 521.011 603.043 521.016C603.146 521.026 603.296 521.043 603.488 521.066C603.874 521.114 604.433 521.194 605.13 521.32C606.524 521.574 608.474 522.017 610.708 522.776C615.173 524.294 620.796 527.082 625.371 532.165C629.93 537.23 632.336 542.548 633.603 546.601C634.236 548.627 634.585 550.339 634.775 551.547C634.871 552.151 634.927 552.63 634.959 552.959C634.975 553.124 634.985 553.252 634.991 553.339C634.994 553.383 634.997 553.416 634.998 553.44C634.999 553.451 634.999 553.46 634.999 553.466C634.999 553.469 635 553.472 635 553.474V651H362.594V632.5C362.594 629.82 362.33 628.271 361.972 627.287C361.623 626.33 361.176 625.882 360.696 625.403L360.647 625.354C360.108 624.815 359.676 624.265 358.877 623.809C358.095 623.362 356.936 623 355 623H285C283.742 623 282.591 622.947 281.563 622.921C280.525 622.894 279.605 622.894 278.76 622.993C277.103 623.188 275.723 623.762 274.379 625.326C273.373 626.498 272.884 628.489 272.663 630.281C272.555 631.161 272.514 631.964 272.5 632.547C272.493 632.838 272.494 633.074 272.495 633.235C272.496 633.316 272.497 633.379 272.498 633.421C272.499 633.441 272.499 633.457 272.499 633.467C272.499 633.472 272.5 633.476 272.5 633.479V651H0.500092V549.95L0.509857 549.902L1.00009 550C0.538905 549.908 0.511442 549.902 0.509857 549.901V549.9L0.510834 549.898C0.511131 549.897 0.511328 549.895 0.51181 549.893C0.512967 549.887 0.514525 549.879 0.516693 549.868C0.521093 549.847 0.527495 549.817 0.536224 549.777C0.553729 549.699 0.580737 549.583 0.617279 549.435C0.690412 549.137 0.803234 548.705 0.965912 548.161C1.29124 547.074 1.81407 545.539 2.60458 543.736C4.18506 540.133 6.84191 535.451 11.1466 531.147C15.4697 526.823 20.7974 524.292 25.0255 522.841C27.1421 522.115 28.9907 521.657 30.3116 521.38C30.9722 521.242 31.5018 521.149 31.8673 521.09C32.0496 521.061 32.1913 521.04 32.2882 521.026C32.3364 521.02 32.374 521.014 32.3995 521.011C32.412 521.009 32.422 521.009 32.4288 521.008C32.4322 521.007 32.4357 521.007 32.4376 521.007L32.4395 521.006H32.4405L32.4698 521.003H227.5V488.465L227.505 488.43V488.428L227.506 488.426C227.506 488.424 227.507 488.422 227.507 488.419C227.508 488.413 227.508 488.405 227.51 488.395C227.513 488.373 227.519 488.341 227.525 488.3C227.539 488.218 227.56 488.099 227.588 487.945C227.645 487.638 227.734 487.194 227.865 486.643C228.127 485.54 228.555 484.002 229.221 482.259C230.55 478.779 232.838 474.446 236.673 471.122C240.473 467.829 244.027 466.049 246.641 465.093C247.947 464.615 249.018 464.343 249.767 464.19C250.141 464.113 250.435 464.067 250.638 464.039C250.739 464.025 250.818 464.016 250.872 464.01C250.899 464.007 250.921 464.005 250.936 464.004C250.943 464.003 250.949 464.002 250.953 464.002H250.962L250.98 464H250.998L381.998 463.5H382.02L382.042 463.502ZM259.972 492L259.944 492.003C257.585 492.265 255.959 493.196 254.928 494.436C253.903 495.667 253.5 497.162 253.5 498.5V522H381.5V498.5C381.5 495.757 379.839 494.119 378.252 493.193C377.459 492.731 376.671 492.435 376.084 492.256C375.79 492.166 375.543 492.105 375.368 492.065C375.281 492.046 375.212 492.031 375.163 492.022C375.139 492.017 375.119 492.013 375.106 492.011C375.099 492.01 375.094 492.009 375.09 492.008C375.088 492.008 375.086 492.008 375.085 492.008L375.083 492.007L375 492.5L375.082 492.007L375.041 492H375V492.256C375 492 375 492 374.999 492H259.972Z" fill="white"/>
<path d="M0.500071 790C0.499911 768 0.500071 680.5 0.500071 680.5H272V703.5C272 706 275.5 709.5 277.5 709.5H357C358.5 709.5 363 707 363 703.5C363 700 362.5 680.5 362.5 680.5H634C634 680.5 636 761 634 787.5C631.999 814 609.499 819 605.5 820C601.5 821 39.4999 821 32.5001 820C25.5003 819 0.500231 812 0.500071 790Z" fill="white" stroke="white"/>
</svg>
